# xmcd
#
# Track frame offsets: 
#        150
#        12569
#        24772
#        38184
#        52519
#        62841
#        74769
#        86645
#        98918
#        110407
#        120179
#        131275
#        143558
#        157030
#        170606
#
# Disc length: 2466 seconds
#
# Revision: 0
# Processed by: cddbd v1.5.2PL0 Copyright (c) Steve Scherf et al.
# Submitted via: ExactAudioCopy v0.99pb4
#
DISCID=be09a00f
DTITLE=Tennessee Ernie Ford - Sixteen Tons
DYEAR=1960
DGENRE=Country
TTITLE0=Sixteen Tons
TTITLE1=Shotgun Boogie
TTITLE2=Ballad Of Davy Crockett
TTITLE3=Mule Train
TTITLE4=Ivy League
TTITLE5=I'll Never Be Free
TTITLE6=River Of No Return
TTITLE7=Smokey Mountain Boogie
TTITLE8=Blackberry Boogie
TTITLE9=Hey Good Lookin'
TTITLE10=In The Middle Of An Island
TTITLE11=Blues Stay Away From Me
TTITLE12=The Old Rugged Cross
TTITLE13=John Henry
TTITLE14=The Cry Of The Wild Goose
EXTD=
EXTT0=
EXTT1=
EXTT2=
EXTT3=
EXTT4=
EXTT5=
EXTT6=
EXTT7=
EXTT8=
EXTT9=
EXTT10=
EXTT11=
EXTT12=
EXTT13=
EXTT14=
PLAYORDER=
